# xmcd
#
# Track frame offsets:
#   150
#   21445
#   39368
#   67573
#   85820
#   100567
#   103141
#   122402
#   138821
#   155034
#
# Disc length: 2344 seconds
#
# Revision: 0
# Processed by: cddbd v1.5.1PL2 Copyright (c) Steve Scherf et al.
# Submitted via: GXTranscoder 2.0.1939
#
DISCID=7009260a
DTITLE=Radio Moskau - Testsignal
DYEAR=1900
DGENRE=UnClassifiable
TTITLE0=Intro
TTITLE1=Zombieland
TTITLE2=Alte Freunde
TTITLE3=Die Waffe
TTITLE4=Ich finde einen Weg
TTITLE5=Freitag Nacht
TTITLE6=Realit‰tsverdreher
TTITLE7=Brennende Straﬂen
TTITLE8=Wolkenreise
TTITLE9=Radio Moskau
EXTD=
EXTT0=
EXTT1=
EXTT2=
EXTT3=
EXTT4=
EXTT5=
EXTT6=
EXTT7=
EXTT8=
EXTT9=
PLAYORDER=
